<?xml version="1.0" encoding="utf-8"?>
<!-- Generator: Adobe Illustrator 26.3.1, SVG Export Plug-In . SVG Version: 6.00 Build 0)  -->
<svg version="1.1" id="Layer_1" xmlns="http://www.w3.org/2000/svg" xmlns:xlink="http://www.w3.org/1999/xlink" x="0px" y="0px"
	 viewBox="0 0 50 50" style="enable-background:new 0 0 50 50;" xml:space="preserve">
<style type="text/css">
	.st0{fill:#007AFF;}
</style>
<g id="share-api">
	<g id="_xDBC0__xDE02_" transform="translate(9.000000, 5.000000)">
		<path id="Shape" class="st0" d="M5.3,40.2h20.8c1.8,0,3.1-0.4,4-1.3s1.3-2.2,1.3-3.9V16.4c0-1.7-0.4-3-1.3-3.9s-2.2-1.3-4-1.3H21
			v2.2h5.1c1,0,1.8,0.3,2.3,0.8s0.8,1.3,0.8,2.4v18.2c0,1-0.3,1.8-0.8,2.4s-1.3,0.8-2.3,0.8H5.4c-1,0-1.8-0.3-2.3-0.8
			s-0.8-1.3-0.8-2.4V16.5c0-1,0.3-1.8,0.8-2.4s1.3-0.8,2.3-0.8h5.1v-2.2H5.3c-1.8,0-3.1,0.4-4,1.3S0,14.7,0,16.4v18.5
			c0,1.7,0.4,3.1,1.3,3.9S3.6,40.2,5.3,40.2z M15.7,26.3c0.3,0,0.6-0.1,0.8-0.3s0.3-0.5,0.3-0.8V5.7l-0.1-2.6l1.6,1.7L21.4,8
			c0.2,0.2,0.5,0.3,0.8,0.3c0.3,0,0.5-0.1,0.7-0.3c0.2-0.2,0.3-0.4,0.3-0.7c0-0.3-0.1-0.5-0.3-0.7l-6.4-6.2
			c-0.1-0.1-0.3-0.2-0.4-0.3C16,0,15.9,0,15.7,0c-0.1,0-0.3,0-0.4,0.1s-0.3,0.2-0.4,0.3L8.6,6.6C8.3,6.8,8.2,7,8.2,7.3
			c0,0.3,0.1,0.5,0.3,0.7c0.2,0.2,0.4,0.3,0.7,0.3C9.5,8.3,9.8,8.2,10,8l3.1-3.2l1.6-1.7l-0.1,2.6v19.5c0,0.3,0.1,0.5,0.3,0.8
			S15.4,26.3,15.7,26.3z"/>
	</g>
</g>
</svg>
