<svg width="161" height="30" viewBox="0 0 161 30" fill="none" xmlns="http://www.w3.org/2000/svg">
<path d="M151.984 19.2512C151.983 19.7444 151.885 20.2325 151.696 20.6878C151.506 21.1431 151.229 21.5566 150.88 21.9047C150.532 22.2528 150.118 22.5287 149.662 22.7166C149.207 22.9046 148.719 23.0009 148.226 23L138.744 22.9834C137.749 22.9817 136.796 22.5844 136.094 21.8789C135.392 21.1734 134.998 20.2175 135 19.2216L135.016 9.74879C135.017 9.25563 135.115 8.76747 135.304 8.31218C135.494 7.8569 135.771 7.44339 136.12 7.09529C136.468 6.74718 136.882 6.47129 137.338 6.28336C137.793 6.09543 138.281 5.99915 138.774 6.00001L148.256 6.01658C149.251 6.01832 150.204 6.41564 150.906 7.12113C151.608 7.82661 152.002 8.78247 152 9.77844L151.984 19.2512ZM150.759 9.95072C150.759 9.59929 150.691 9.25117 150.557 8.92625C150.423 8.60133 150.227 8.30597 149.979 8.05703C149.731 7.80809 149.437 7.61045 149.113 7.47539C148.789 7.34034 148.442 7.27051 148.091 7.26989L138.924 7.25387C138.573 7.25325 138.225 7.32186 137.901 7.45578C137.576 7.5897 137.281 7.78631 137.032 8.03438C136.784 8.28244 136.586 8.57712 136.452 8.90156C136.317 9.22601 136.247 9.57389 136.246 9.92532L136.231 18.9839C136.23 19.3353 136.298 19.6834 136.432 20.0083C136.566 20.3333 136.762 20.6286 137.01 20.8776C137.258 21.1265 137.552 21.3241 137.876 21.4592C138.2 21.5943 138.548 21.6641 138.899 21.6647L148.065 21.6807C148.416 21.6813 148.764 21.6127 149.089 21.4788C149.413 21.3449 149.708 21.1483 149.957 20.9002C150.205 20.6522 150.403 20.3575 150.538 20.033C150.672 19.7086 150.742 19.3607 150.743 19.0093L150.759 9.95072Z" fill="black"/>
<rect x="139.491" y="14.0189" width="8.33962" height="1.28302" rx="0.641509" fill="black"/>
<rect x="144.302" y="10.4906" width="8.33962" height="1.28302" rx="0.641509" transform="rotate(90 144.302 10.4906)" fill="black"/>
<path d="M8.44434 20L11.7515 10.8403H12.9004V12.4463H12.4688L9.94238 20H8.44434ZM10.0376 17.5244L10.4375 16.3818H14.6079L15.0078 17.5244H10.0376ZM15.0967 20L12.5767 12.4463V10.8403H13.2939L16.5947 20H15.0967ZM19.7721 20.1143C19.1966 20.1143 18.693 19.9704 18.2614 19.6826C17.834 19.3906 17.5018 18.978 17.2648 18.4448C17.032 17.9116 16.9157 17.2832 16.9157 16.5596V16.5469C16.9157 15.819 17.032 15.1885 17.2648 14.6553C17.4975 14.1221 17.8276 13.7116 18.255 13.4238C18.6824 13.1318 19.1881 12.9858 19.7721 12.9858C20.0895 12.9858 20.3857 13.0366 20.6608 13.1382C20.9358 13.2355 21.1792 13.3752 21.3908 13.5571C21.6023 13.7349 21.7695 13.9486 21.8922 14.1982H21.9938V10.4023H23.3776V20H21.9938V18.9146H21.8922C21.7568 19.1642 21.5854 19.38 21.3781 19.562C21.1707 19.7397 20.9316 19.8773 20.6608 19.9746C20.3899 20.0677 20.0937 20.1143 19.7721 20.1143ZM20.1657 18.9336C20.5465 18.9336 20.8766 18.8384 21.1559 18.6479C21.4352 18.4575 21.6489 18.1846 21.797 17.8291C21.9451 17.4694 22.0192 17.0462 22.0192 16.5596V16.5469C22.0192 16.056 21.943 15.6328 21.7907 15.2773C21.6426 14.9219 21.4288 14.6489 21.1496 14.4585C20.8745 14.2638 20.5465 14.1665 20.1657 14.1665C19.7848 14.1665 19.4547 14.2638 19.1754 14.4585C18.9004 14.6489 18.6888 14.9219 18.5407 15.2773C18.3968 15.6286 18.3248 16.0518 18.3248 16.5469V16.5596C18.3248 17.0505 18.3968 17.4736 18.5407 17.8291C18.6888 18.1846 18.9004 18.4575 19.1754 18.6479C19.4547 18.8384 19.7848 18.9336 20.1657 18.9336ZM27.5452 20.1143C26.9697 20.1143 26.4661 19.9704 26.0345 19.6826C25.607 19.3906 25.2748 18.978 25.0379 18.4448C24.8051 17.9116 24.6887 17.2832 24.6887 16.5596V16.5469C24.6887 15.819 24.8051 15.1885 25.0379 14.6553C25.2706 14.1221 25.6007 13.7116 26.0281 13.4238C26.4555 13.1318 26.9612 12.9858 27.5452 12.9858C27.8626 12.9858 28.1588 13.0366 28.4339 13.1382C28.7089 13.2355 28.9523 13.3752 29.1638 13.5571C29.3754 13.7349 29.5426 13.9486 29.6653 14.1982H29.7669V10.4023H31.1507V20H29.7669V18.9146H29.6653C29.5299 19.1642 29.3585 19.38 29.1512 19.562C28.9438 19.7397 28.7047 19.8773 28.4339 19.9746C28.163 20.0677 27.8668 20.1143 27.5452 20.1143ZM27.9387 18.9336C28.3196 18.9336 28.6497 18.8384 28.929 18.6479C29.2083 18.4575 29.422 18.1846 29.5701 17.8291C29.7182 17.4694 29.7923 17.0462 29.7923 16.5596V16.5469C29.7923 16.056 29.7161 15.6328 29.5637 15.2773C29.4156 14.9219 29.2019 14.6489 28.9226 14.4585C28.6476 14.2638 28.3196 14.1665 27.9387 14.1665C27.5579 14.1665 27.2278 14.2638 26.9485 14.4585C26.6734 14.6489 26.4619 14.9219 26.3137 15.2773C26.1699 15.6286 26.0979 16.0518 26.0979 16.5469V16.5596C26.0979 17.0505 26.1699 17.4736 26.3137 17.8291C26.4619 18.1846 26.6734 18.4575 26.9485 18.6479C27.2278 18.8384 27.5579 18.9336 27.9387 18.9336ZM38.5591 20.0444C37.8059 20.0444 37.26 19.9006 36.9214 19.6128C36.5871 19.3208 36.42 18.8447 36.42 18.1846V14.1919H35.3409V13.1064H36.42V11.3672H37.8292V13.1064H39.3082V14.1919H37.8292V17.8481C37.8292 18.2205 37.9032 18.4893 38.0513 18.6543C38.1994 18.8151 38.4449 18.8955 38.7877 18.8955C38.8892 18.8955 38.976 18.8934 39.0479 18.8892C39.1241 18.8849 39.2108 18.8786 39.3082 18.8701V19.9746C39.1981 19.9915 39.0796 20.0063 38.9527 20.019C38.8257 20.036 38.6946 20.0444 38.5591 20.0444ZM43.3742 20.1333C42.7014 20.1333 42.1195 19.9894 41.6286 19.7017C41.142 19.4139 40.7674 19.0034 40.5051 18.4702C40.2427 17.9328 40.1115 17.2959 40.1115 16.5596V16.5469C40.1115 15.8063 40.2427 15.1694 40.5051 14.6362C40.7717 14.103 41.1483 13.6925 41.635 13.4048C42.1258 13.117 42.7056 12.9731 43.3742 12.9731C44.0471 12.9731 44.6268 13.117 45.1135 13.4048C45.6001 13.6883 45.9746 14.0988 46.237 14.6362C46.5036 15.1694 46.6369 15.8063 46.6369 16.5469V16.5596C46.6369 17.2959 46.5036 17.9328 46.237 18.4702C45.9746 19.0034 45.6001 19.4139 45.1135 19.7017C44.6311 19.9894 44.0513 20.1333 43.3742 20.1333ZM43.3742 18.978C43.7678 18.978 44.1021 18.8828 44.3771 18.6924C44.6522 18.4977 44.8617 18.2205 45.0056 17.8608C45.1494 17.5011 45.2214 17.0674 45.2214 16.5596V16.5469C45.2214 16.0348 45.1494 15.599 45.0056 15.2393C44.8617 14.8796 44.6522 14.6045 44.3771 14.4141C44.1021 14.2194 43.7678 14.1221 43.3742 14.1221C42.9807 14.1221 42.6464 14.2194 42.3713 14.4141C42.0962 14.6045 41.8846 14.8796 41.7365 15.2393C41.5926 15.599 41.5207 16.0348 41.5207 16.5469V16.5596C41.5207 17.0674 41.5926 17.5011 41.7365 17.8608C41.8846 18.2205 42.0962 18.4977 42.3713 18.6924C42.6464 18.8828 42.9807 18.978 43.3742 18.978ZM51.1953 20V10.8403H52.6172V14.7124H57.3144V10.8403H58.7427V20H57.3144V15.9438H52.6172V20H51.1953ZM63.4181 20.1333C62.7452 20.1333 62.1634 19.9894 61.6725 19.7017C61.1858 19.4139 60.8113 19.0034 60.5489 18.4702C60.2866 17.9328 60.1554 17.2959 60.1554 16.5596V16.5469C60.1554 15.8063 60.2866 15.1694 60.5489 14.6362C60.8155 14.103 61.1922 13.6925 61.6788 13.4048C62.1697 13.117 62.7495 12.9731 63.4181 12.9731C64.0909 12.9731 64.6707 13.117 65.1573 13.4048C65.644 13.6883 66.0185 14.0988 66.2809 14.6362C66.5475 15.1694 66.6808 15.8063 66.6808 16.5469V16.5596C66.6808 17.2959 66.5475 17.9328 66.2809 18.4702C66.0185 19.0034 65.644 19.4139 65.1573 19.7017C64.6749 19.9894 64.0952 20.1333 63.4181 20.1333ZM63.4181 18.978C63.8116 18.978 64.146 18.8828 64.421 18.6924C64.6961 18.4977 64.9056 18.2205 65.0494 17.8608C65.1933 17.5011 65.2653 17.0674 65.2653 16.5596V16.5469C65.2653 16.0348 65.1933 15.599 65.0494 15.2393C64.9056 14.8796 64.6961 14.6045 64.421 14.4141C64.146 14.2194 63.8116 14.1221 63.4181 14.1221C63.0245 14.1221 62.6902 14.2194 62.4152 14.4141C62.1401 14.6045 61.9285 14.8796 61.7804 15.2393C61.6365 15.599 61.5646 16.0348 61.5646 16.5469V16.5596C61.5646 17.0674 61.6365 17.5011 61.7804 17.8608C61.9285 18.2205 62.1401 18.4977 62.4152 18.6924C62.6902 18.8828 63.0245 18.978 63.4181 18.978ZM67.9285 20V13.1064H69.3059V14.1665H69.4138C69.5662 13.7856 69.8032 13.4915 70.1248 13.2842C70.4506 13.0768 70.8399 12.9731 71.2927 12.9731C71.6059 12.9731 71.8873 13.0239 72.137 13.1255C72.3866 13.2271 72.6004 13.3709 72.7781 13.5571C72.9601 13.7391 73.1018 13.9549 73.2034 14.2046H73.3113C73.4255 13.9549 73.5864 13.7391 73.7937 13.5571C74.0011 13.3709 74.2423 13.2271 74.5173 13.1255C74.7966 13.0239 75.0929 12.9731 75.406 12.9731C75.8715 12.9731 76.2693 13.0641 76.5994 13.2461C76.9295 13.4238 77.1812 13.682 77.3547 14.0205C77.5283 14.359 77.615 14.7674 77.615 15.2456V20H76.2376V15.5757C76.2376 15.2583 76.1889 14.9959 76.0916 14.7886C75.9942 14.577 75.8461 14.4183 75.6472 14.3125C75.4526 14.2067 75.2071 14.1538 74.9109 14.1538C74.6189 14.1538 74.3629 14.2215 74.1428 14.3569C73.927 14.4881 73.7577 14.6659 73.635 14.8901C73.5165 15.1102 73.4573 15.3599 73.4573 15.6392V20H72.0798V15.436C72.0798 15.1737 72.0248 14.9473 71.9148 14.7568C71.809 14.5622 71.6567 14.4141 71.4578 14.3125C71.2589 14.2067 71.024 14.1538 70.7532 14.1538C70.4781 14.1538 70.2306 14.2257 70.0105 14.3696C69.7947 14.5135 69.6233 14.7082 69.4963 14.9536C69.3694 15.1948 69.3059 15.4657 69.3059 15.7661V20H67.9285ZM82.0492 20.1333C81.3764 20.1333 80.7987 19.9894 80.3163 19.7017C79.8339 19.4097 79.4615 18.9971 79.1991 18.4639C78.941 17.9307 78.8119 17.3001 78.8119 16.5723V16.5659C78.8119 15.8465 78.941 15.2181 79.1991 14.6807C79.4615 14.1432 79.8297 13.7243 80.3036 13.4238C80.7818 13.1234 81.3404 12.9731 81.9794 12.9731C82.6226 12.9731 83.1749 13.117 83.6361 13.4048C84.1016 13.6925 84.4592 14.0967 84.7089 14.6172C84.9586 15.1335 85.0834 15.7386 85.0834 16.4326V16.915H79.5102V15.9312H84.3979L83.7377 16.8452V16.293C83.7377 15.8021 83.6615 15.3958 83.5092 15.0742C83.3611 14.7484 83.1558 14.505 82.8935 14.3442C82.6311 14.1834 82.3285 14.103 81.9857 14.103C81.643 14.103 81.3362 14.1877 81.0653 14.3569C80.7987 14.522 80.5871 14.7674 80.4306 15.0933C80.2782 15.4191 80.202 15.819 80.202 16.293V16.8452C80.202 17.298 80.2782 17.6852 80.4306 18.0068C80.5829 18.3285 80.7987 18.5739 81.078 18.7432C81.3616 18.9124 81.6959 18.9971 82.081 18.9971C82.3772 18.9971 82.6311 18.9569 82.8427 18.8765C83.0585 18.7918 83.2341 18.6882 83.3695 18.5654C83.5092 18.4427 83.6044 18.3221 83.6552 18.2036L83.6806 18.1528H85.0136L85.0009 18.21C84.9416 18.4385 84.838 18.667 84.6898 18.8955C84.5417 19.1198 84.345 19.325 84.0995 19.5112C83.8583 19.6974 83.5663 19.8477 83.2235 19.9619C82.885 20.0762 82.4936 20.1333 82.0492 20.1333ZM92.7394 20.2222C92.0497 20.2222 91.4487 20.1143 90.9367 19.8984C90.4247 19.6784 90.0205 19.3737 89.7243 18.9844C89.4281 18.5951 89.2588 18.1444 89.2165 17.6323L89.2101 17.5498H90.613L90.6193 17.6196C90.6489 17.8947 90.7568 18.1338 90.943 18.3369C91.1335 18.54 91.3874 18.6987 91.7048 18.813C92.0264 18.9272 92.3924 18.9844 92.8029 18.9844C93.188 18.9844 93.5308 18.923 93.8312 18.8003C94.1317 18.6776 94.3665 18.5083 94.5358 18.2925C94.7093 18.0767 94.7961 17.8291 94.7961 17.5498V17.5435C94.7961 17.1922 94.6628 16.9002 94.3962 16.6675C94.1296 16.4347 93.6937 16.2528 93.0886 16.1216L92.0856 15.9121C91.1589 15.7132 90.4839 15.3979 90.0607 14.9663C89.6375 14.5304 89.426 13.974 89.426 13.2969V13.2905C89.4302 12.7616 89.572 12.2961 89.8512 11.894C90.1348 11.492 90.5262 11.1789 91.0256 10.9546C91.5249 10.7303 92.0983 10.6182 92.7458 10.6182C93.3932 10.6182 93.9582 10.7303 94.4406 10.9546C94.9273 11.1746 95.3102 11.4751 95.5895 11.856C95.8731 12.2368 96.0318 12.6663 96.0656 13.1445L96.072 13.2271H94.6818L94.6691 13.1445C94.631 12.8949 94.5274 12.6727 94.3581 12.478C94.193 12.2834 93.9709 12.131 93.6916 12.021C93.4165 11.9067 93.0949 11.8517 92.7267 11.856C92.3713 11.856 92.0539 11.911 91.7746 12.021C91.4953 12.1268 91.2731 12.2812 91.1081 12.4844C90.9473 12.6875 90.8669 12.9329 90.8669 13.2207V13.2271C90.8669 13.5656 90.9959 13.8491 91.2541 14.0776C91.5165 14.3019 91.9417 14.4775 92.53 14.6045L93.5329 14.8267C94.1719 14.9621 94.6903 15.1419 95.0881 15.3662C95.4859 15.5905 95.7757 15.8677 95.9577 16.1978C96.1439 16.5236 96.237 16.9129 96.237 17.3657V17.3721C96.237 17.9561 96.0931 18.4618 95.8054 18.8892C95.5218 19.3123 95.1177 19.6403 94.5929 19.873C94.0682 20.1058 93.4504 20.2222 92.7394 20.2222ZM100.462 20.1333C99.7931 20.1333 99.2155 19.9894 98.7288 19.7017C98.2464 19.4097 97.874 18.995 97.6116 18.4575C97.3493 17.9201 97.2181 17.279 97.2181 16.5342V16.5215C97.2181 15.7894 97.3472 15.1589 97.6053 14.6299C97.8677 14.1009 98.2401 13.6925 98.7225 13.4048C99.2091 13.117 99.7868 12.9731 100.455 12.9731C101.035 12.9731 101.532 13.0747 101.947 13.2778C102.366 13.4767 102.698 13.7518 102.944 14.103C103.193 14.45 103.35 14.8457 103.413 15.29L103.42 15.3218H102.093L102.087 15.3091C102.011 14.9705 101.835 14.6891 101.56 14.4648C101.285 14.2363 100.919 14.1221 100.462 14.1221C100.081 14.1221 99.7529 14.2194 99.4779 14.4141C99.2028 14.6045 98.9912 14.8796 98.8431 15.2393C98.6992 15.599 98.6273 16.0264 98.6273 16.5215V16.5342C98.6273 17.042 98.7013 17.4779 98.8494 17.8418C98.9975 18.2057 99.2091 18.4871 99.4842 18.686C99.7593 18.8807 100.085 18.978 100.462 18.978C100.893 18.978 101.243 18.8828 101.509 18.6924C101.78 18.502 101.97 18.2205 102.08 17.8481L102.093 17.8164L103.413 17.8101L103.401 17.8672C103.32 18.3158 103.157 18.7093 102.912 19.0479C102.666 19.3864 102.339 19.653 101.928 19.8477C101.522 20.0381 101.033 20.1333 100.462 20.1333ZM104.585 20V13.1064H105.962V14.1475H106.07C106.193 13.7793 106.409 13.4937 106.718 13.2905C107.031 13.0874 107.416 12.9858 107.873 12.9858C107.987 12.9858 108.099 12.9922 108.209 13.0049C108.319 13.0176 108.408 13.0324 108.476 13.0493V14.3188C108.353 14.2935 108.231 14.2744 108.108 14.2617C107.989 14.249 107.865 14.2427 107.733 14.2427C107.382 14.2427 107.073 14.3104 106.807 14.4458C106.544 14.5812 106.337 14.7716 106.185 15.0171C106.036 15.2583 105.962 15.5461 105.962 15.8804V20H104.585ZM112.129 20.1333C111.457 20.1333 110.879 19.9894 110.397 19.7017C109.914 19.4097 109.542 18.9971 109.279 18.4639C109.021 17.9307 108.892 17.3001 108.892 16.5723V16.5659C108.892 15.8465 109.021 15.2181 109.279 14.6807C109.542 14.1432 109.91 13.7243 110.384 13.4238C110.862 13.1234 111.421 12.9731 112.06 12.9731C112.703 12.9731 113.255 13.117 113.716 13.4048C114.182 13.6925 114.539 14.0967 114.789 14.6172C115.039 15.1335 115.164 15.7386 115.164 16.4326V16.915H109.59V15.9312H114.478L113.818 16.8452V16.293C113.818 15.8021 113.742 15.3958 113.589 15.0742C113.441 14.7484 113.236 14.505 112.974 14.3442C112.711 14.1834 112.409 14.103 112.066 14.103C111.723 14.103 111.416 14.1877 111.146 14.3569C110.879 14.522 110.667 14.7674 110.511 15.0933C110.358 15.4191 110.282 15.819 110.282 16.293V16.8452C110.282 17.298 110.358 17.6852 110.511 18.0068C110.663 18.3285 110.879 18.5739 111.158 18.7432C111.442 18.9124 111.776 18.9971 112.161 18.9971C112.457 18.9971 112.711 18.9569 112.923 18.8765C113.139 18.7918 113.314 18.6882 113.45 18.5654C113.589 18.4427 113.685 18.3221 113.735 18.2036L113.761 18.1528H115.094L115.081 18.21C115.022 18.4385 114.918 18.667 114.77 18.8955C114.622 19.1198 114.425 19.325 114.18 19.5112C113.939 19.6974 113.647 19.8477 113.304 19.9619C112.965 20.0762 112.574 20.1333 112.129 20.1333ZM119.306 20.1333C118.633 20.1333 118.055 19.9894 117.573 19.7017C117.091 19.4097 116.718 18.9971 116.456 18.4639C116.198 17.9307 116.069 17.3001 116.069 16.5723V16.5659C116.069 15.8465 116.198 15.2181 116.456 14.6807C116.718 14.1432 117.086 13.7243 117.56 13.4238C118.038 13.1234 118.597 12.9731 119.236 12.9731C119.879 12.9731 120.432 13.117 120.893 13.4048C121.358 13.6925 121.716 14.0967 121.966 14.6172C122.215 15.1335 122.34 15.7386 122.34 16.4326V16.915H116.767V15.9312H121.655L120.994 16.8452V16.293C120.994 15.8021 120.918 15.3958 120.766 15.0742C120.618 14.7484 120.413 14.505 120.15 14.3442C119.888 14.1834 119.585 14.103 119.242 14.103C118.9 14.103 118.593 14.1877 118.322 14.3569C118.055 14.522 117.844 14.7674 117.687 15.0933C117.535 15.4191 117.459 15.819 117.459 16.293V16.8452C117.459 17.298 117.535 17.6852 117.687 18.0068C117.84 18.3285 118.055 18.5739 118.335 18.7432C118.618 18.9124 118.953 18.9971 119.338 18.9971C119.634 18.9971 119.888 18.9569 120.099 18.8765C120.315 18.7918 120.491 18.6882 120.626 18.5654C120.766 18.4427 120.861 18.3221 120.912 18.2036L120.937 18.1528H122.27L122.258 18.21C122.198 18.4385 122.095 18.667 121.947 18.8955C121.798 19.1198 121.602 19.325 121.356 19.5112C121.115 19.6974 120.823 19.8477 120.48 19.9619C120.142 20.0762 119.75 20.1333 119.306 20.1333ZM123.588 20V13.1064H124.965V14.1475H125.073C125.242 13.7793 125.492 13.4915 125.822 13.2842C126.152 13.0768 126.569 12.9731 127.073 12.9731C127.847 12.9731 128.44 13.1953 128.85 13.6396C129.26 14.084 129.466 14.7166 129.466 15.5376V20H128.082V15.8613C128.082 15.2858 127.961 14.8584 127.72 14.5791C127.483 14.2956 127.111 14.1538 126.603 14.1538C126.269 14.1538 125.979 14.2279 125.733 14.376C125.488 14.5199 125.297 14.7272 125.162 14.998C125.031 15.2646 124.965 15.5841 124.965 15.9565V20H123.588Z" fill="black"/>
</svg>
